<svg width="46" height="46" viewBox="0 0 46 46" fill="none" xmlns="http://www.w3.org/2000/svg">
<path d="M20.125 23.7188H25.875V25.1562H20.125V23.7188Z" fill="#FFB400"/>
<path d="M22.2812 21.5625H23.7188V27.3125H22.2812V21.5625Z" fill="#FFB400"/>
<path d="M40.9688 23.7188H42.4062V25.1562H40.9688V23.7188Z" fill="#FFB400"/>
<path d="M35.2188 23.7188H36.6562V25.1562H35.2188V23.7188Z" fill="#FFB400"/>
<path d="M38.0938 20.8438H39.5312V22.2812H38.0938V20.8438Z" fill="#FFB400"/>
<path d="M38.0938 26.5938H39.5312V28.0312H38.0938V26.5938Z" fill="#FFB400"/>
<path d="M6.62631 12.668L3.39194 8.625L6.62631 4.58203L7.74866 5.48047L5.23303 8.625L7.74866 11.7695L6.62631 12.668Z" fill="#FFB400"/>
<path d="M17.8112 12.668L16.6888 11.7695L19.2051 8.625L16.6888 5.48047L17.8112 4.58203L21.0448 8.625L17.8112 12.668Z" fill="#FFB400"/>
<path d="M9.16125 11.0258L14.1939 5.27722L15.2755 6.22374L10.2429 11.9727L9.16125 11.0258Z" fill="#FFB400"/>
<path d="M5.75 31.625H2.875V28.75H4.3125V30.1875H5.75V31.625Z" fill="#FFB400"/>
<path d="M43.8438 1.4375H2.15625C0.965469 1.4375 0 2.40297 0 3.59375V32.3438C0 33.5345 0.965469 34.5 2.15625 34.5H17.25V38.0938C17.25 39.2845 16.2845 40.25 15.0938 40.25H11.5V44.5625H34.5V40.25H30.9062C29.7155 40.25 28.75 39.2845 28.75 38.0938V34.5H43.8438C45.0345 34.5 46 33.5345 46 32.3438V3.59375C46 2.40297 45.0345 1.4375 43.8438 1.4375ZM33.0625 41.6875V43.125H12.9375V41.6875H33.0625ZM23 38.8427C24.1908 38.8427 25.1562 37.8772 25.1562 36.6864V34.5H27.3125V38.0938C27.3153 38.8739 27.5743 39.6316 28.0499 40.25H17.9501C18.4257 39.6316 18.6847 38.8739 18.6875 38.0938V34.5H20.8438V36.6864C20.8438 37.8772 21.8092 38.8427 23 38.8427ZM22.2812 36.6864V34.5H23.7188V36.6864C23.7188 37.0834 23.3969 37.4052 23 37.4052C22.6031 37.4052 22.2812 37.0834 22.2812 36.6864ZM44.5625 32.3438C44.5625 32.7407 44.2407 33.0625 43.8438 33.0625H2.15625C1.75932 33.0625 1.4375 32.7407 1.4375 32.3438V25.875H15.9564C16.5516 28.8009 18.8946 31.0533 21.8419 31.5323C24.7888 32.0117 27.7249 30.6178 29.2164 28.0312H32.5947C33.7991 30.1254 35.9779 31.472 38.3896 31.6131C40.8013 31.7542 43.1218 30.6708 44.5625 28.7314V32.3438ZM38.8125 30.1875C36.6278 30.1928 34.6313 28.9525 33.6675 26.9921L33.4686 26.5938H28.3439L28.145 26.9921C26.8843 29.5337 23.9585 30.7764 21.2544 29.9183C18.5499 29.0599 16.8759 26.3579 17.3118 23.5542C17.7473 20.7507 20.1629 18.6843 23 18.6875H38.8125C41.9883 18.6875 44.5625 21.2617 44.5625 24.4375C44.5625 27.6133 41.9883 30.1875 38.8125 30.1875ZM44.5625 20.1436C43.2106 18.325 41.0786 17.2521 38.8125 17.25H23C19.0321 17.2542 15.8167 20.4696 15.8125 24.4375H1.4375V3.59375C1.4375 3.19682 1.75932 2.875 2.15625 2.875H43.8438C44.2407 2.875 44.5625 3.19682 44.5625 3.59375V20.1436Z" fill="#FFB400"/>
<path d="M29.4688 23.7188H32.3438V25.1562H29.4688V23.7188Z" fill="#FFB400"/>
<path d="M21.5625 5.75H27.3125V7.1875H21.5625V5.75Z" fill="#FFB400"/>
<path d="M30.1875 5.75H41.6875V7.1875H30.1875V5.75Z" fill="#FFB400"/>
<path d="M31.625 8.625H41.6875V10.0625H31.625V8.625Z" fill="#FFB400"/>
<path d="M23 8.625H28.75V10.0625H23V8.625Z" fill="#FFB400"/>
<path d="M21.5625 11.5H35.9375V12.9375H21.5625V11.5Z" fill="#FFB400"/>
<path d="M38.8125 11.5H41.6875V12.9375H38.8125V11.5Z" fill="#FFB400"/>
<path d="M4.3125 14.375H11.5V15.8125H4.3125V14.375Z" fill="#FFB400"/>
<path d="M14.375 14.375H28.0312V15.8125H14.375V14.375Z" fill="#FFB400"/>
<path d="M30.1875 14.375H41.6875V15.8125H30.1875V14.375Z" fill="#FFB400"/>
<path d="M4.3125 17.25H15.8125V18.6875H4.3125V17.25Z" fill="#FFB400"/>
<path d="M4.3125 20.125H10.0625V21.5625H4.3125V20.125Z" fill="#FFB400"/>
<path d="M11.5 20.125H14.375V21.5625H11.5V20.125Z" fill="#FFB400"/>
</svg>
