<svg width="323" height="244" viewBox="0 0 323 244" fill="none" xmlns="http://www.w3.org/2000/svg">
<path d="M165.046 38.3329C165.046 59.1894 181.814 76.0921 202.502 76.0921H228.626L228.593 76.1251C228.593 76.1251 236.5 76.5534 242.001 82.0888C246.448 86.6028 247.568 93.6208 247.733 95.1694V149.502C247.47 151.677 246.317 157.673 241.935 162.088C236.895 167.195 228.626 167.953 228.626 167.953H175.917C174.006 167.69 167.187 166.405 162.97 162.187C158.819 157.97 157.469 151.94 157.106 149.502V122.056C157.106 101.199 140.371 84.2963 119.683 84.2963C98.9944 84.2963 82.2263 101.199 82.2263 122.056C82.2263 142.912 98.9944 159.815 119.683 159.815H145.939C145.906 159.815 145.906 159.848 145.906 159.848C145.906 159.848 153.779 160.408 159.248 165.943C163.596 170.293 164.749 177.08 164.98 178.892V205.712C164.98 208.315 165.276 210.852 165.77 213.324C169.262 230.523 184.35 243.472 202.436 243.472C223.125 243.472 239.893 226.569 239.893 205.712V179.189C240.057 177.772 241.177 170.358 245.658 165.877C250.962 160.54 259.263 159.782 259.263 159.848L259.197 159.815H285.19C305.878 159.815 322.646 142.879 322.646 122.023V121.891C322.646 101.034 305.878 84.1316 285.19 84.1316H258.835C257.188 83.901 250.072 82.7148 245.724 78.3326C241.474 74.0493 240.222 67.9208 239.926 65.6474V38.3329C239.926 17.4763 223.158 0.573608 202.502 0.573608C181.814 0.573608 165.046 17.4763 165.046 38.3329ZM120.144 243.472C99.4556 243.472 82.6875 226.569 82.6875 205.712V178.398C82.391 176.092 81.1721 169.996 76.9225 165.713C72.574 161.33 65.4582 160.144 63.8111 159.914H37.4565C16.7681 159.914 0 143.011 0 122.154C0 122.121 0 122.089 0 122.089C0 122.056 0 122.023 0 121.99C0 101.133 16.7681 84.2304 37.4565 84.2304H63.4487L63.3828 84.1975C63.3828 84.2634 71.6845 83.5056 76.9883 78.1679C81.4357 73.6539 82.5558 66.2734 82.7534 64.8236V38.3329C82.7534 17.4763 99.5215 0.573608 120.21 0.573608C138.296 0.573608 153.384 13.5225 156.876 30.7217C157.37 33.1599 157.633 35.697 157.633 38.3329V65.1531C157.897 66.9324 159.05 73.7527 163.366 78.102C168.867 83.6374 176.74 84.1975 176.74 84.1975L176.708 84.2304H202.963C223.652 84.2304 240.42 101.133 240.42 121.99C240.42 142.813 223.652 159.749 202.963 159.749C182.275 159.749 165.54 142.813 165.54 121.99V94.5105C165.177 92.1052 163.827 86.0756 159.643 81.8581C155.426 77.6077 148.64 76.3557 146.729 76.0921H94.02C94.02 76.0921 85.7183 76.8499 80.7109 81.924C76.3295 86.3392 75.1765 92.3358 74.9129 94.5763V148.876C75.0776 150.392 76.1977 157.475 80.6451 161.957C86.1466 167.492 94.02 167.92 94.02 167.92L93.9871 167.953H120.144C140.832 167.953 157.6 184.856 157.6 205.712C157.6 226.569 140.832 243.472 120.144 243.472Z" fill="#EB5A24"/>
</svg>
